# xmcd
#
# Track frame offsets:
#	150
#	16813
#	34395
#	54060
#	71921
#	88812
#	105313
#	124038
#	139579
#	155843
#	172334
#	186070
#	203550
#	208306
#	225736
#	241837
#	259770
#	275530
#
# Disc length: 3863 seconds
#
# Revision: 0
# Processed by: cddbd v1.5.2PL0 Copyright (c) Steve Scherf et al.
# Submitted via: EasyCDDAExtractor 11.0.2.1
#
DISCID=020f1512
DTITLE=Various Artist - Ghetto truand et associés
DYEAR=2007
DGENRE=
TTITLE0=Alibi Montana and Kheimer - Rime Criminelle
TTITLE1=Saf - Jungle Fever
TTITLE2=Intouchable - Chant De Bataille
TTITLE3=Babass - Bordelik
TTITLE4=Manu Key - Solide Son
TTITLE5=Mokem - A L'affut...
TTITLE6=Opium - A Qui La Faute
TTITLE7=Opful Crew, Nasme and Supalex - Accrochez Vous
TTITLE8=Kery James - 1 Pour La Cause
TTITLE9=Escobar Macson - Aux Armes
TTITLE10=Sultan - C'est Fait Pour
TTITLE11=Al Peco and Mic Fury - La Meme Haine
TTITLE12=Dayan Blaiz - J'ai Le Flow Qu'il Te Faut
TTITLE13=Alpha 5.20, Hajmo and Pepkale - Blood Money
TTITLE14=Lmc Click - Bienvenue A Grigny
TTITLE15=T.Kila and Xklibur - Bicraveur De Rimes
TTITLE16=K.Special - Interdit
TTITLE17=Nysay and Supalex - La Rue
EXTD=
EXTT0=
EXTT1=
EXTT2=
EXTT3=
EXTT4=
EXTT5=
EXTT6=
EXTT7=
EXTT8=
EXTT9=
EXTT10=
EXTT11=
EXTT12=
EXTT13=
EXTT14=
EXTT15=
EXTT16=
EXTT17=
PLAYORDER=
